<?xml version="1.0" encoding="UTF-8" standalone="no"?>
<svg
   xmlns:dc="http://purl.org/dc/elements/1.1/"
   xmlns:cc="http://creativecommons.org/ns#"
   xmlns:rdf="http://www.w3.org/1999/02/22-rdf-syntax-ns#"
   xmlns:svg="http://www.w3.org/2000/svg"
   xmlns="http://www.w3.org/2000/svg"
   id="svg8"
   version="1.1"
   viewBox="0 0 188.28065 154.24193"
   height="154.24193mm"
   width="188.28065mm">
  <defs
     id="defs2">
    <clipPath
       clipPathUnits="userSpaceOnUse"
       id="clipPath3745">
      <path
         d="M 0,595.28 H 419.53 V 0 H 0 Z"
         id="path3743" />
    </clipPath>
  </defs>
  <metadata
     id="metadata5">
    <rdf:RDF>
      <cc:Work
         rdf:about="">
        <dc:format>image/svg+xml</dc:format>
        <dc:type
           rdf:resource="http://purl.org/dc/dcmitype/StillImage" />
        <dc:title></dc:title>
      </cc:Work>
    </rdf:RDF>
  </metadata>
  <g
     transform="translate(-12.895719,-72.69765)"
     id="layer1">
    <g
       id="g3721"
       transform="matrix(0.55047591,0,0,-0.55047591,-11.417536,385.35393)">
      <g
         id="g3723"
         transform="translate(104.1274,386.0898)">
        <path
           d="M 0,0 V 149.435 H 23.034 V 90.567 h 45.232 v 58.868 H 91.3 V 0 H 68.266 V 65.271 H 23.034 V 0 Z"
           style="fill:#ffffff;fill-opacity:1;fill-rule:nonzero;stroke:none"
           id="path3725" />
      </g>
      <g
         id="g3727"
         transform="translate(104.1274,386.0898)">
        <path
           d="M 0,0 V 149.435 H 23.034 V 90.567 h 45.232 v 58.868 H 91.3 V 0 H 68.266 V 65.271 H 23.034 V 0 Z"
           style="fill:none;stroke:#000000;stroke-width:0.25;stroke-linecap:butt;stroke-linejoin:miter;stroke-miterlimit:10;stroke-dasharray:none;stroke-opacity:1"
           id="path3729" />
      </g>
      <g
         id="g3731"
         transform="translate(232.6152,386.0898)">
        <path
           d="m 0,0 v 27.17 l 59.963,96.969 H 6.803 v 25.296 h 83.66 V 126.013 L 27.768,25.14 H 92.851 V 0 Z"
           style="fill:#ffffff;fill-opacity:1;fill-rule:nonzero;stroke:none"
           id="path3733" />
      </g>
      <g
         id="g3735"
         transform="translate(232.6152,386.0898)">
        <path
           d="m 0,0 v 27.17 l 59.963,96.969 H 6.803 v 25.296 h 83.66 V 126.013 L 27.768,25.14 H 92.851 V 0 Z"
           style="fill:none;stroke:#000000;stroke-width:0.25;stroke-linecap:butt;stroke-linejoin:miter;stroke-miterlimit:10;stroke-dasharray:none;stroke-opacity:1"
           id="path3737" />
      </g>
      <g
         id="g3739">
        <g
           id="g3741"
           clip-path="url(#clipPath3745)">
          <g
             id="g3747"
             transform="translate(82.875,330.2803)">
            <path
               d="m 0,0 c 0.001,0.399 0,0.594 0.188,0.622 0.315,0.048 0.479,-0.16 0.979,-2.83 0.451,-2.41 0.524,-3.946 2.583,-3.834 31.664,1.719 125.844,14.323 125.844,14.323 0,0 0.252,0.865 1.261,1.891 0.724,0.735 1.819,1.047 1.819,1.047 l -1.361,13.594 c 0,0 -19.399,-2.292 -20.529,-2.195 -0.325,0.028 -0.753,0.593 0.216,0.851 1.128,0.298 41.25,5.406 42.063,5.25 0.527,-0.102 0.609,-0.703 0.25,-0.896 -0.361,-0.193 -20.639,-2.792 -20.639,-2.792 l 2.139,-13.437 c 0,0 0.933,-0.232 1.781,-0.688 0.812,-0.437 1.781,-1.406 1.781,-1.406 0,0 94.514,12.478 124.482,17.743 0.991,0.174 2.338,0.708 2.299,2.007 -0.031,1.031 -0.41,4.283 -0.375,5.125 0.014,0.322 0.572,0.411 0.657,0.188 0.186,-0.496 0.402,-3.2 0.406,-6.25 0.001,-0.688 -0.414,-1.712 -1.491,-1.908 C 235.999,21.232 139.719,6.656 139.719,6.656 c 0,0 0.969,-3.031 0.375,-5.031 -0.555,-1.868 -2.277,-3.569 -4.506,-3.833 -1.932,-0.23 -3.62,0.184 -4.838,1.458 -1.636,1.712 -1.562,6.156 -1.562,6.156 0,0 -96.477,-10.857 -125.75,-12.656 C 2.289,-7.321 1.406,-6.672 1.141,-5.734 0.477,-3.393 -0.001,-0.454 0,0 Z"
               style="fill:#ffffff;stroke:#1e1f1d;stroke-width:0.25;stroke-linecap:butt;stroke-linejoin:miter;stroke-miterlimit:10;stroke-dasharray:none;stroke-opacity:1"
               id="path3749" />
          </g>
          <g
             id="g3751"
             transform="translate(75.5137,560.5195)">
            <path
               d="m 0,0 279.619,0.062 c 19.134,0 22.643,-3.838 22.643,-20.507 v -177.544 c 0,-13.23 -1.72,-20.502 -22.643,-20.502 h -17.218 l 0.01,-5.648 h 21.425 c 26.724,0 26.707,10.87 26.707,24.85 v 181.771 c 0,12.846 1.639,24.848 -26.707,24.848 H -4.514 c -26.707,0 -26.707,-16.783 -26.707,-24.848 v -181.771 c 0,-18.811 6.054,-24.85 26.707,-24.85 H 18.75 l 0.028,5.648 H -0.379 c -18.969,0 -22.643,6.118 -22.643,20.502 V -20.445 C -23.022,-5.856 -15.746,0 0,0"
               style="fill:#ffffff;fill-opacity:1;fill-rule:nonzero;stroke:#1e1f1d;stroke-width:0.25;stroke-linecap:butt;stroke-linejoin:miter;stroke-miterlimit:10;stroke-dasharray:none;stroke-opacity:1"
               id="path3753" />
          </g>
          <g
             id="g3755"
             transform="translate(71.75,311.0303)">
            <path
               d="m 0,0 -0.75,-2.39 h 7 L 3.333,-13.833 c 0,0 -0.625,-2.667 -3.166,-2.667 -2.337,0 -2.5,0.75 -2.5,0.75 H -4.25 c 0,0 0.375,-1.834 2.125,-2.584 1.75,-0.75 3.542,-0.583 4.708,-0.583 0,0 3.486,0.326 4.917,2.417 1.083,1.583 4.542,16.5 4.542,16.5 z"
               style="fill:none;stroke:#000000;stroke-width:0.25;stroke-linecap:butt;stroke-linejoin:miter;stroke-miterlimit:10;stroke-dasharray:none;stroke-opacity:1"
               id="path3757" />
          </g>
          <g
             id="g3759"
             transform="translate(84.1875,291.9053)">
            <path
               d="M 0,0 H -2.979 L 1.604,8.416 H 2.979 V 5.041 Z"
               style="fill:none;stroke:#000000;stroke-width:0.25;stroke-linecap:butt;stroke-linejoin:miter;stroke-miterlimit:10;stroke-dasharray:none;stroke-opacity:1"
               id="path3761" />
          </g>
          <g
             id="g3763"
             transform="translate(86.9585,302.5713)">
            <path
               d="m 0,0 5.083,8.459 h 0.959 l 5.083,-19.125 H 4.292 L 1.125,-0.041 Z"
               style="fill:none;stroke:#000000;stroke-width:0.25;stroke-linecap:butt;stroke-linejoin:miter;stroke-miterlimit:10;stroke-dasharray:none;stroke-opacity:1"
               id="path3765" />
          </g>
          <g
             id="g3767"
             transform="translate(99.2085,291.9053)">
            <path
               d="m 0,0 5.958,19.125 h 1.834 l 5.708,-8.959 3.25,8.959 h 6.417 v -2.39 L 18.042,0 h -2.667 l -5,8.416 L 7.667,0 Z"
               style="fill:none;stroke:#000000;stroke-width:0.25;stroke-linecap:butt;stroke-linejoin:miter;stroke-miterlimit:10;stroke-dasharray:none;stroke-opacity:1"
               id="path3769" />
          </g>
          <g
             id="g3771"
             transform="translate(129.75,308.1968)">
            <path
               d="M 0,0 H -4.292 V 2.833 H 13.875 V 0 h -6 l -5.25,-16.292 h -8.25 z"
               style="fill:none;stroke:#000000;stroke-width:0.25;stroke-linecap:butt;stroke-linejoin:miter;stroke-miterlimit:10;stroke-dasharray:none;stroke-opacity:1"
               id="path3773" />
          </g>
          <g
             id="g3775"
             transform="translate(141.4702,291.9053)">
            <path
               d="M 0,0 H -2.979 L 1.604,8.416 H 2.979 V 5.041 Z"
               style="fill:none;stroke:#000000;stroke-width:0.25;stroke-linecap:butt;stroke-linejoin:miter;stroke-miterlimit:10;stroke-dasharray:none;stroke-opacity:1"
               id="path3777" />
          </g>
          <g
             id="g3779"
             transform="translate(144.2412,302.5713)">
            <path
               d="m 0,0 5.083,8.459 h 0.959 l 5.083,-19.125 H 4.292 L 1.125,-0.041 Z"
               style="fill:none;stroke:#000000;stroke-width:0.25;stroke-linecap:butt;stroke-linejoin:miter;stroke-miterlimit:10;stroke-dasharray:none;stroke-opacity:1"
               id="path3781" />
          </g>
          <g
             id="g3783"
             transform="translate(157.625,291.9053)">
            <path
               d="m 0,0 0.074,0.187 7.551,18.938 h 6.792 L 7.875,0 Z"
               style="fill:none;stroke:#000000;stroke-width:0.25;stroke-linecap:butt;stroke-linejoin:miter;stroke-miterlimit:10;stroke-dasharray:none;stroke-opacity:1"
               id="path3785" />
          </g>
          <g
             id="g3787"
             transform="translate(173.75,311.0303)">
            <path
               d="m 0,0 -0.958,-2.39 h 2.791 c 0,0 0.375,-1.86 -0.166,-3.027 -0.542,-1.167 -1.75,-3.042 -1.75,-3.042 0,0 -2.125,-0.084 -2.542,-0.375 -0.417,-0.291 -0.625,-0.729 -0.625,-0.729 v -1.687 l 5.209,-0.125 c 0,0 1.791,-0.041 3.374,1.812 1.584,1.854 1.875,4.563 2,5.271 0.125,0.709 0.334,2.917 -0.166,3.709 C 6.667,0.208 5.667,0 5.667,0 Z"
               style="fill:none;stroke:#000000;stroke-width:0.25;stroke-linecap:butt;stroke-linejoin:miter;stroke-miterlimit:10;stroke-dasharray:none;stroke-opacity:1"
               id="path3789" />
          </g>
          <g
             id="g3791"
             transform="translate(170.5,298.9053)">
            <path
               d="M 0,0 H 3.292 L 6.875,-7 H 2.958 Z"
               style="fill:none;stroke:#000000;stroke-width:0.25;stroke-linecap:butt;stroke-linejoin:miter;stroke-miterlimit:10;stroke-dasharray:none;stroke-opacity:1"
               id="path3793" />
          </g>
          <g
             id="g3795"
             transform="translate(189.4165,304.3633)">
            <path
               d="M 0,0 -0.417,-3.833 H 9.75 L 10.125,0 Z"
               style="fill:none;stroke:#000000;stroke-width:0.25;stroke-linecap:butt;stroke-linejoin:miter;stroke-miterlimit:10;stroke-dasharray:none;stroke-opacity:1"
               id="path3797" />
          </g>
          <g
             id="g3799"
             transform="translate(220.1875,311.0303)">
            <path
               d="m 0,0 -7,0.025 c 0,0 -2.875,-3.088 -2.875,-5.275 0,-2.188 2.687,-4.25 2.687,-6.438 0,-2.187 -4.5,-6.875 -4.5,-6.875 h 7.438 c 0,0 3.687,4.188 3.75,6.438 0.062,2.25 -2.5,4.687 -2.5,7 C -3,-2.813 0,0 0,0 Z"
               style="fill:none;stroke:#000000;stroke-width:0.25;stroke-linecap:butt;stroke-linejoin:miter;stroke-miterlimit:10;stroke-dasharray:none;stroke-opacity:1"
               id="path3801" />
          </g>
          <g
             id="g3803"
             transform="translate(229.9688,311.0542)">
            <path
               d="M 0,0 4.469,-0.024 3.594,-3.336 h 2.687 l -0.312,-2 H 3.031 l -3.25,-13.25 h -4.375 l 3.375,13.25 -3.719,-0.032 0.407,2.033 3.718,0.03 z"
               style="fill:none;stroke:#000000;stroke-width:0.25;stroke-linecap:butt;stroke-linejoin:miter;stroke-miterlimit:10;stroke-dasharray:none;stroke-opacity:1"
               id="path3805" />
          </g>
          <g
             id="g3807"
             transform="translate(246.1563,305.7803)">
            <path
               d="m 0,0 h -4.563 c 0,0 -3.605,-1.96 -4.437,-7.781 -0.406,-2.844 0,-3.782 0.375,-4.375 0.375,-0.594 0.875,-1.157 0.875,-1.157 h 3.875 l 0.25,2.5 -2.156,0.313 c 0,0 -0.219,3.594 2.031,6.062 2.25,2.469 3.312,2.407 3.312,2.407 z"
               style="fill:none;stroke:#000000;stroke-width:0.25;stroke-linecap:butt;stroke-linejoin:miter;stroke-miterlimit:10;stroke-dasharray:none;stroke-opacity:1"
               id="path3809" />
          </g>
          <g
             id="g3811"
             transform="translate(247.625,305.7803)">
            <path
               d="M 0,0 -3.625,-13.313 H 0.25 L 4,0 Z"
               style="fill:none;stroke:#000000;stroke-width:0.25;stroke-linecap:butt;stroke-linejoin:miter;stroke-miterlimit:10;stroke-dasharray:none;stroke-opacity:1"
               id="path3813" />
          </g>
          <g
             id="g3815"
             transform="translate(255.9375,305.7803)">
            <path
               d="M 0,0 -3.656,-13.313 H 0.25 L 3.75,0 Z"
               style="fill:none;stroke:#000000;stroke-width:0.25;stroke-linecap:butt;stroke-linejoin:miter;stroke-miterlimit:10;stroke-dasharray:none;stroke-opacity:1"
               id="path3817" />
          </g>
          <g
             id="g3819"
             transform="translate(260.6875,305.7803)">
            <path
               d="m 0,0 v -1.875 c 0,0 1.438,0.094 1.281,-1.063 -0.156,-1.156 -3.094,-10.375 -3.094,-10.375 h 4.969 c 0,0 3.589,10.163 3.344,11.594 -0.187,1.094 -0.469,1.375 -1.062,1.5 C 4.614,-0.045 0,0 0,0 Z"
               style="fill:none;stroke:#000000;stroke-width:0.25;stroke-linecap:butt;stroke-linejoin:miter;stroke-miterlimit:10;stroke-dasharray:none;stroke-opacity:1"
               id="path3821" />
          </g>
          <g
             id="g3823"
             transform="translate(278.7783,305.7803)">
            <path
               d="m 0,0 h -4.563 c 0,0 -3.605,-1.96 -4.437,-7.781 -0.406,-2.844 0,-3.782 0.375,-4.375 0.375,-0.594 0.875,-1.157 0.875,-1.157 h 3.875 l 0.25,2.5 -2.156,0.313 c 0,0 -0.219,3.594 2.031,6.062 2.25,2.469 3.312,2.407 3.312,2.407 z"
               style="fill:none;stroke:#000000;stroke-width:0.25;stroke-linecap:butt;stroke-linejoin:miter;stroke-miterlimit:10;stroke-dasharray:none;stroke-opacity:1"
               id="path3825" />
          </g>
          <g
             id="g3827"
             transform="translate(281.9658,312.0615)">
            <path
               d="m 0,0 -5.344,-19.594 h 3.875 L 4,0 Z"
               style="fill:none;stroke:#000000;stroke-width:0.25;stroke-linecap:butt;stroke-linejoin:miter;stroke-miterlimit:10;stroke-dasharray:none;stroke-opacity:1"
               id="path3829" />
          </g>
          <g
             id="g3831"
             transform="translate(295.585,305.7803)">
            <path
               d="m 0,0 h -4.563 c 0,0 -3.605,-1.96 -4.437,-7.781 -0.406,-2.844 0,-3.782 0.375,-4.375 0.375,-0.594 0.875,-1.157 0.875,-1.157 h 3.875 l 0.25,2.5 -2.156,0.313 c 0,0 -0.219,3.594 2.031,6.062 2.25,2.469 3.312,2.407 3.312,2.407 z"
               style="fill:none;stroke:#000000;stroke-width:0.25;stroke-linecap:butt;stroke-linejoin:miter;stroke-miterlimit:10;stroke-dasharray:none;stroke-opacity:1"
               id="path3833" />
          </g>
          <g
             id="g3835"
             transform="translate(297.0537,305.7803)">
            <path
               d="M 0,0 -3.625,-13.313 H 0.25 L 4,0 Z"
               style="fill:none;stroke:#000000;stroke-width:0.25;stroke-linecap:butt;stroke-linejoin:miter;stroke-miterlimit:10;stroke-dasharray:none;stroke-opacity:1"
               id="path3837" />
          </g>
          <g
             id="g3839"
             transform="translate(324.9121,306.623)">
            <path
               d="m 0,0 h -4.563 c 0,0 -3.605,-1.96 -4.437,-7.781 -0.406,-2.844 0,-3.782 0.375,-4.375 0.375,-0.594 0.875,-1.157 0.875,-1.157 h 3.875 l 0.25,2.5 -2.156,0.313 c 0,0 -0.219,3.594 2.031,6.062 2.25,2.469 3.312,2.407 3.312,2.407 z"
               style="fill:none;stroke:#000000;stroke-width:0.25;stroke-linecap:butt;stroke-linejoin:miter;stroke-miterlimit:10;stroke-dasharray:none;stroke-opacity:1"
               id="path3841" />
          </g>
          <g
             id="g3843"
             transform="translate(328.0996,312.9043)">
            <path
               d="m 0,0 -5.344,-19.594 h 3.875 L 4,0 Z"
               style="fill:none;stroke:#000000;stroke-width:0.25;stroke-linecap:butt;stroke-linejoin:miter;stroke-miterlimit:10;stroke-dasharray:none;stroke-opacity:1"
               id="path3845" />
          </g>
          <g
             id="g3847"
             transform="translate(301.6563,292.4678)">
            <path
               d="m 0,0 3.594,13.313 h 4.25 L 4.5,0 Z"
               style="fill:none;stroke:#000000;stroke-width:0.25;stroke-linecap:butt;stroke-linejoin:miter;stroke-miterlimit:10;stroke-dasharray:none;stroke-opacity:1"
               id="path3849" />
          </g>
          <g
             id="g3851"
             transform="translate(310.4688,305.7803)">
            <path
               d="m 0,0 -1.281,-4.5 h 2.187 c 0,0 0.188,1.437 0.844,2.25 0.656,0.812 1.781,1.031 1.781,1.031 V 0 Z"
               style="fill:none;stroke:#000000;stroke-width:0.25;stroke-linecap:butt;stroke-linejoin:miter;stroke-miterlimit:10;stroke-dasharray:none;stroke-opacity:1"
               id="path3853" />
          </g>
          <g
             id="g3855"
             transform="translate(348.375,312.9043)">
            <path
               d="m 0,0 h 16.938 v -0.749 l -6.75,-8.406 c 0,0 4.125,-3.344 3.843,-7.969 -0.281,-4.625 -5.397,-7.091 -6.625,-7.414 -1.562,-0.411 -3.687,-0.774 -7.093,-0.055 -1.662,0.351 -4.126,1.75 -5.469,2.969 -1.344,1.219 -2.063,2.937 -2.063,2.937 v 0.907 l 2.375,-0.032 c 0,0 1.375,-3.718 6.157,-3.718 4.781,0 6.437,3.343 6.437,4.562 0,1.219 -1.469,4.125 -4.152,4.623 l -0.032,1.469 5.528,6.612 H 9.219 -1.938 Z"
               style="fill:none;stroke:#000000;stroke-width:0.25;stroke-linecap:butt;stroke-linejoin:miter;stroke-miterlimit:10;stroke-dasharray:none;stroke-opacity:1"
               id="path3857" />
          </g>
        </g>
      </g>
    </g>
    <path
       transform="scale(0.26458333)"
       id="path125"
       d="m 688.38878,857.1422 c -0.15626,-0.0131 -0.68185,-0.0545 -1.16799,-0.0919 -2.02915,-0.15603 -4.73476,-0.62919 -6.09658,-1.06617 -3.68755,-1.18327 -8.58802,-4.16091 -10.81443,-6.5711 -1.146,-1.24059 -2.35074,-3.01069 -3.112,-4.57239 l -0.27474,-0.56363 v -0.78796 -0.78796 l 1.18377,0.0414 c 0.65108,0.0228 1.65255,0.0416 2.22549,0.0418 l 1.04172,4.4e-4 0.29805,0.5858 c 1.39863,2.74896 4.04119,5.06069 7.08523,6.19822 3.14543,1.17541 7.35993,1.27327 10.74747,0.24956 3.05457,-0.9231 5.44237,-2.62926 7.06122,-5.04549 0.94853,-1.41574 1.47867,-2.85712 1.48128,-4.02742 0.005,-2.24428 -1.87496,-5.66026 -4.17912,-7.59367 -1.30428,-1.09441 -2.80865,-1.89235 -4.10385,-2.17672 l -0.36069,-0.0792 -0.0181,-1.35711 -0.0181,-1.35708 5.64719,-6.75532 c 3.10595,-3.71542 5.69841,-6.76871 5.76102,-6.78508 0.0879,-0.023 0.11385,-0.0929 0.11385,-0.30651 v -0.27675 h -11.39579 c -6.26768,0 -11.39578,-0.0183 -11.39578,-0.0406 0,-0.0223 0.84374,-1.89742 1.87498,-4.16688 l 1.87498,-4.12629 h 17.38105 17.38106 v 0.58506 0.58507 l -6.92088,8.61679 c -3.80648,4.73924 -6.99252,8.71003 -7.08009,8.82398 l -0.15921,0.2072 0.27734,0.2317 c 0.54483,0.45516 1.66285,1.57663 2.34557,2.3528 3.8192,4.34197 5.79872,9.37173 5.47492,13.91123 -0.0772,1.08232 -0.14126,1.48728 -0.39108,2.47218 -1.04911,4.1361 -4.28683,7.9853 -9.1248,10.84816 -0.92231,0.54577 -2.08151,1.12542 -2.95176,1.476 -1.15962,0.46716 -3.34839,0.95435 -5.33487,1.18747 -0.8005,0.0939 -3.7133,0.17438 -4.35628,0.1203 z"
       style="fill:#ffffff;stroke-width:0.06313454" />
    <path
       transform="scale(0.26458333)"
       id="path127"
       d="m 628.76629,845.87234 c 0,-0.0508 10.71389,-39.41106 10.89827,-40.0376 0.0305,-0.10366 0.27053,-0.11048 3.88683,-0.11048 h 3.85432 l -0.0362,0.14205 c -0.0199,0.0781 -2.54353,9.12688 -5.60805,20.10835 l -5.57186,19.96629 h -3.71165 c -2.62983,0 -3.71166,-0.02 -3.71166,-0.0686 z"
       style="fill:#ffffff;stroke-width:0.06313454" />
    <path
       transform="scale(0.26458333)"
       id="path129"
       d="m 616.37544,845.34583 c -1.79036,-2.23874 -2.2142,-3.32157 -2.30003,-5.87617 -0.093,-2.76885 0.51421,-6.76692 1.46714,-9.65958 1.51233,-4.59078 4.22121,-8.49662 7.42211,-10.70169 l 0.45768,-0.31529 h 4.5387 c 4.29327,0 4.53688,0.006 4.50514,0.11049 -0.0185,0.0608 -0.19445,0.86336 -0.3911,1.78355 -0.19664,0.92019 -0.38334,1.70561 -0.41488,1.74538 -0.0316,0.0398 -0.16288,0.092 -0.29186,0.11604 -0.59725,0.11135 -1.72739,0.71965 -2.77252,1.49231 -1.22748,0.90747 -3.25082,2.84308 -4.24945,4.06519 -1.96914,2.40983 -3.27385,5.72775 -3.68648,9.37487 -0.12524,1.10696 -0.19286,2.49314 -0.1391,2.85162 l 0.0424,0.28307 2.15032,0.31091 c 1.18268,0.17099 2.1753,0.32632 2.20582,0.34516 0.0307,0.019 -0.0477,1.06763 -0.17582,2.35176 l -0.23132,2.3175 h -3.83043 -3.83044 z"
       style="fill:#ffffff;stroke-width:0.06313454" />
    <path
       transform="scale(0.26458333)"
       id="path131"
       d="m 600.54516,829.27736 c 0,-0.0565 2.26957,-8.08397 2.40636,-8.5113 l 0.0657,-0.20519 h 3.40436 3.40437 v 1.00224 1.00224 l -0.58399,0.20272 c -1.61767,0.56153 -2.79321,1.47328 -3.53323,2.74038 -0.48745,0.83462 -0.99323,2.26912 -1.18834,3.3704 l -0.0811,0.45772 h -1.94705 c -1.16997,0 -1.94706,-0.0236 -1.94706,-0.0592 z"
       style="fill:#ffffff;stroke-width:0.06313454" />
    <path
       transform="scale(0.26458333)"
       id="path133"
       d="m 584.85758,847.56667 c 0.0159,-0.0434 1.66098,-6.12612 3.65565,-13.51714 1.99468,-7.39102 3.63824,-13.44978 3.65237,-13.4639 0.0141,-0.0141 1.87162,-0.0184 4.12779,-0.009 l 4.10211,0.0163 -3.35551,13.35295 c -1.84553,7.34413 -3.37498,13.43108 -3.39877,13.52658 l -0.0433,0.17362 h -4.38466 c -3.48109,0 -4.3787,-0.0163 -4.35571,-0.0789 z"
       style="fill:#ffffff;stroke-width:0.06313454" />
    <path
       transform="scale(0.26458333)"
       id="path135"
       d="m 567.7662,847.50403 c 0.0198,-0.0784 1.67595,-6.16558 3.68031,-13.52707 l 3.64428,-13.38452 3.87001,-0.0163 3.87001,-0.0163 -0.046,0.14254 c -0.0253,0.0784 -1.74288,6.16557 -3.81693,13.52706 l -3.771,13.38452 -3.73337,0.0163 -3.73338,0.0163 z"
       style="fill:#ffffff;stroke-width:0.06313454" />
    <path
       transform="scale(0.26458333)"
       id="path137"
       d="m 555.5327,847.31413 c -0.47558,-0.55694 -1.34808,-1.78432 -1.61399,-2.2705 -0.92071,-1.68332 -1.10282,-4.03619 -0.61223,-7.90994 0.59617,-4.70752 2.04852,-8.64122 4.43739,-12.01874 1.16181,-1.64263 2.74471,-3.24498 4.18734,-4.23879 l 0.45767,-0.31529 h 4.54181 c 4.40921,0 4.54091,0.003 4.51086,0.11834 -0.017,0.0651 -0.196,0.88787 -0.39773,1.82842 l -0.36678,1.71009 -0.19363,0.041 c -1.42242,0.30126 -3.6241,1.87675 -5.8823,4.20928 -1.48507,1.53395 -2.24012,2.56204 -3.02583,4.11999 -1.32226,2.62185 -2.00786,5.49961 -2.01512,8.45835 l -0.003,1.32414 2.17814,0.31259 c 1.19798,0.17192 2.1895,0.32136 2.20339,0.33208 0.0236,0.0182 -0.33191,3.77279 -0.41302,4.3621 l -0.0369,0.26833 h -3.83637 -3.83637 l -0.28304,-0.33146 z"
       style="fill:#ffffff;stroke-width:0.06313454" />
    <path
       transform="scale(0.26458333)"
       id="path139"
       d="m 532.77263,847.56717 c 0.0166,-0.0437 2.48432,-9.07846 5.48378,-20.07728 l 5.45356,-19.99787 h 3.85916 3.85916 l -0.21648,0.7734 c -0.11907,0.42537 -2.63899,9.45282 -5.59982,20.061 l -5.38334,19.2876 -3.74312,0.0163 c -2.98639,0.013 -3.73701,2.5e-4 -3.7129,-0.0631 z"
       style="fill:#ffffff;stroke-width:0.06313454" />
    <path
       transform="scale(0.26458333)"
       id="path141"
       d="m 520.36466,847.06159 c -1.41776,-1.75625 -1.9573,-2.87455 -2.20072,-4.56147 -0.17385,-1.20474 -0.0599,-3.81269 0.26417,-6.04629 0.97651,-6.73041 4.05893,-12.37913 8.4791,-15.53849 l 0.49593,-0.35447 h 4.53905 c 2.49648,0 4.53905,0.0156 4.53905,0.0347 0,0.0495 -0.76576,3.59367 -0.77857,3.6035 -0.006,0.004 -0.18107,0.0566 -0.38942,0.11571 -1.38055,0.39202 -3.24834,1.72463 -5.30631,3.78592 -1.19387,1.1958 -1.76566,1.85676 -2.3799,2.7511 -1.9069,2.77644 -3.02524,6.52514 -3.04098,10.19348 l -0.006,1.32309 2.19393,0.31767 2.19392,0.31767 v 0.15396 c 0,0.16816 -0.35422,3.78525 -0.41323,4.21959 l -0.0364,0.26833 h -3.84122 -3.84123 l -0.47144,-0.584 z"
       style="fill:#ffffff;stroke-width:0.06313454" />
    <path
       transform="scale(0.26458333)"
       id="path143"
       d="m 495.88573,847.59484 c 0,-0.0279 0.37102,-1.22826 0.82448,-2.66744 2.53413,-8.0427 4.47078,-14.48735 5.18788,-17.26389 0.21487,-0.83196 0.26121,-1.11596 0.26272,-1.60993 0.002,-0.5 -0.0223,-0.6492 -0.14333,-0.89679 -0.16625,-0.34016 -0.57212,-0.73893 -0.94645,-0.9299 -0.31775,-0.1621 -0.96091,-0.31771 -1.31831,-0.31896 l -0.26832,-9.3e-4 v -1.68149 -1.68148 l 2.03609,0.0427 c 5.98303,0.12543 8.4964,0.26672 9.29656,0.52259 0.85318,0.27283 1.27651,0.9421 1.58282,2.50241 0.0948,0.48263 0.0994,0.63863 0.0347,1.16799 -0.36243,2.96449 -2.59083,10.50262 -6.2603,21.17703 l -0.58056,1.68885 h -4.85397 c -2.66968,0 -4.85397,-0.0228 -4.85397,-0.0507 z"
       style="fill:#ffffff;stroke-width:0.06313454" />
    <path
       transform="scale(0.26458333)"
       id="path145"
       d="m 485.78906,834.27685 c 2.01917,-7.35281 3.69082,-13.44687 3.71478,-13.54236 l 0.0436,-0.17362 h 3.60483 3.60483 l -0.0366,0.14205 c -0.0201,0.0781 -1.62144,6.17219 -3.55848,13.54236 l -3.52187,13.40031 h -3.76114 -3.76113 z"
       style="fill:#ffffff;stroke-width:0.06313454" />
    <path
       transform="scale(0.26458333)"
       id="path147"
       d="m 464.92254,847.57959 c 0,-0.0363 1.64781,-6.1178 3.6618,-13.51445 2.01399,-7.39665 3.66181,-13.46101 3.66181,-13.47636 0,-0.0154 1.73304,-0.0279 3.8512,-0.0279 2.11817,0 3.85158,0.0213 3.85203,0.0473 4.4e-4,0.026 -1.70934,6.12011 -3.79953,13.54236 l -3.80036,13.49501 h -3.71347 c -2.5409,0 -3.71348,-0.0208 -3.71348,-0.066 z"
       style="fill:#ffffff;stroke-width:0.06313454" />
    <path
       transform="scale(0.26458333)"
       id="path149"
       d="m 452.45049,847.01151 c -1.45558,-1.83819 -1.92037,-2.81864 -2.14364,-4.52186 -0.10889,-0.83065 -0.12242,-2.48675 -0.0293,-3.5882 0.52992,-6.26863 2.37858,-11.20643 5.64922,-15.08915 0.96949,-1.15092 2.19894,-2.28477 3.25516,-3.00203 l 0.36726,-0.2494 h 4.53916 4.53917 l -0.39126,1.80574 c -0.2291,1.0574 -0.42604,1.82725 -0.47521,1.85764 -0.0462,0.0285 -0.18524,0.0704 -0.30902,0.093 -0.29055,0.0531 -1.29676,0.52797 -1.8297,0.86349 -1.42692,0.89833 -3.63655,2.89896 -5.00833,4.53461 -2.41138,2.87522 -3.79493,6.88821 -3.94271,11.43588 -0.0364,1.11887 -0.0324,1.17829 0.0817,1.21244 0.0659,0.0198 1.05746,0.1683 2.20336,0.3301 1.14589,0.16179 2.10286,0.31226 2.1266,0.33435 0.0237,0.0221 -0.0598,1.07006 -0.18556,2.32881 l -0.22873,2.28863 h -3.85802 -3.85803 z"
       style="fill:#ffffff;stroke-width:0.06313454" />
    <path
       transform="scale(0.26458333)"
       id="path151"
       d="m 426.15794,847.58831 c 0,-0.032 1.54813,-6.13572 3.4403,-13.56384 1.89217,-7.42812 3.45924,-13.60034 3.48238,-13.71603 l 0.0421,-0.21036 -3.86119,0.0405 c -2.12365,0.0223 -3.86119,0.0199 -3.86121,-0.005 -1e-5,-0.0252 0.15966,-0.84469 0.35483,-1.82106 l 0.35486,-1.77523 3.8594,-0.0464 c 2.12267,-0.0255 3.86523,-0.0516 3.87235,-0.0581 0.007,-0.006 0.39066,-1.55434 0.85231,-3.43973 l 0.83937,-3.42799 4.32472,0.0449 c 2.37859,0.0247 4.33211,0.0511 4.34114,0.0586 0.009,0.008 -0.38161,1.51922 -0.8681,3.35928 -0.48649,1.84006 -0.88452,3.37868 -0.88452,3.41915 0,0.0549 0.70526,0.0736 2.77792,0.0736 2.68822,0 2.77791,0.004 2.77791,0.1201 0,0.0661 -0.11342,0.84024 -0.25206,1.72041 -0.13863,0.88018 -0.25227,1.63584 -0.25253,1.67924 -3.8e-4,0.062 -0.65407,0.0789 -3.0567,0.0789 h -3.05623 l -0.76457,3.10937 c -0.42051,1.71016 -1.93853,7.89656 -3.37337,13.74755 l -2.6088,10.63817 -4.24014,0.0162 c -2.55487,0.01 -4.24014,-0.007 -4.24014,-0.0419 z"
       style="fill:#ffffff;stroke-width:0.06313454" />
    <path
       transform="scale(0.26458333)"
       id="path153"
       d="m 391.48006,847.50431 c 0.0661,-0.0777 0.36396,-0.41152 0.6618,-0.74183 0.84721,-0.93956 1.76572,-2.02148 2.70739,-3.18907 3.17953,-3.94235 5.03583,-7.12743 5.37336,-9.21973 0.21905,-1.35792 -0.22607,-3.12959 -1.26544,-5.03668 -0.23158,-0.42491 -0.87277,-1.49637 -1.42487,-2.38102 -1.68773,-2.70431 -2.19158,-3.6808 -2.58905,-5.01772 -0.23084,-0.77643 -0.2828,-1.96155 -0.12188,-2.77974 0.38031,-1.9337 1.62045,-4.32136 3.67355,-7.07275 0.58709,-0.78676 1.73415,-2.18012 1.9652,-2.38717 0.12734,-0.1141 0.3474,-0.11634 6.95567,-0.0707 l 6.82417,0.0471 -0.4635,0.48107 c -1.85454,1.92486 -3.71107,4.55926 -4.50405,6.39123 -0.61901,1.43005 -0.8126,2.27301 -0.81033,3.52845 0.002,1.02856 0.0919,1.56383 0.45132,2.68322 0.40472,1.26045 0.83544,2.18509 2.30868,4.95606 1.3144,2.47223 1.82574,3.64105 2.16821,4.95606 0.1626,0.62436 0.18086,0.79648 0.18082,1.70464 -4e-5,1.11044 -0.0511,1.36961 -0.51474,2.61267 -0.90769,2.43357 -3.36082,6.23262 -6.35431,9.84061 l -0.69406,0.83654 h -7.3241 -7.32411 z"
       style="fill:#ffffff;stroke-width:0.06313454" />
    <path
       transform="scale(0.26458333)"
       id="path155"
       d="m 350.42219,830.61505 c 0.0187,-0.16494 0.19904,-1.82696 0.40081,-3.69338 l 0.36684,-3.39348 h 10.25365 10.25364 l -0.0351,0.23676 c -0.0193,0.13021 -0.18541,1.79223 -0.36914,3.69337 l -0.33404,3.45661 h -10.28532 -10.28531 z"
       style="fill:#ffffff;stroke-width:0.06313454" />
    <path
       transform="scale(0.26458333)"
       id="path157"
       d="m 317.92194,832.61898 c -2.32651,-0.0631 -4.63486,-0.11717 -5.12968,-0.12019 l -0.89967,-0.005 v -1.63455 -1.63456 l 0.27334,-0.36997 c 0.34432,-0.46603 0.74114,-0.82462 1.07633,-0.97262 0.56938,-0.25142 2.40338,-0.51194 4.26837,-0.60633 l 0.82683,-0.0418 0.6495,-1.04765 c 1.5703,-2.53292 2.65657,-4.46847 3.12632,-5.57058 0.43818,-1.02804 0.53795,-1.66692 0.54092,-3.46358 0.002,-1.19503 -0.0235,-1.71118 -0.11181,-2.26959 -0.0629,-0.39754 -0.12844,-0.74557 -0.14564,-0.7734 -0.0172,-0.0278 -1.29124,-0.0506 -2.83119,-0.0506 h -2.79992 l 0.8847,-2.20971 0.88469,-2.2097 5.91221,-0.0158 c 7.36949,-0.0197 6.90266,-0.0286 7.35055,0.14082 0.95049,0.35956 1.4201,1.0221 1.67096,2.35742 0.13718,0.73021 0.15327,3.67347 0.026,4.74645 -0.13844,1.16666 -0.50604,3.35516 -0.73702,4.38785 -0.86886,3.8846 -2.35557,6.77899 -4.5173,8.79448 -1.66828,1.55541 -3.72945,2.52922 -5.61492,2.65281 -0.26043,0.0171 -2.37701,-0.0206 -4.70352,-0.0837 z"
       style="fill:#ffffff;stroke-width:0.06313454" />
    <path
       transform="scale(0.26458333)"
       id="path159"
       d="m 315.30422,842.64146 c -1.43975,-3.41124 -2.76591,-6.55055 -2.94703,-6.97624 l -0.3293,-0.77398 3.12651,0.0164 3.12651,0.0164 2.55353,4.98763 c 1.40444,2.74319 3.00796,5.87545 3.56337,6.96058 l 1.00985,1.97295 -3.74286,-7.1e-4 -3.74286,-7.2e-4 z"
       style="fill:#ffffff;stroke-width:0.06313454" />
    <path
       transform="scale(0.26458333)"
       id="path161"
       d="m 285.24982,848.80907 c 0,-0.0286 12.187,-30.62078 14.94414,-37.51319 l 0.66296,-1.65728 h 6.75632 c 6.40431,0 6.75471,0.006 6.72533,0.11048 -0.0362,0.12898 -13.27449,38.82141 -13.33861,38.98558 -0.0408,0.1044 -0.47566,0.11048 -7.89665,0.11048 -4.31942,0 -7.85349,-0.0162 -7.85349,-0.0361 z"
       style="fill:#ffffff;stroke-width:0.06313454" />
    <path
       transform="scale(0.26458333)"
       id="path163"
       d="m 245.51977,848.8044 c 0,-0.0231 2.06298,-3.83045 4.58439,-8.46069 l 4.58438,-8.41862 h 1.19243 1.19242 v 3.33394 3.33395 l -3.01972,5.1103 -3.01972,5.11029 -2.75709,0.0164 c -1.5164,0.009 -2.75709,-0.002 -2.75709,-0.0256 z"
       style="fill:#ffffff;stroke-width:0.06313454" />
    <path
       transform="scale(0.26458333)"
       id="path165"
       d="m 266.06972,848.76622 c -0.0154,-0.0434 -1.49553,-5.00814 -3.28925,-11.03276 -1.79372,-6.02461 -3.26471,-10.95854 -3.26886,-10.96429 -0.004,-0.006 -0.46739,-0.0342 -1.02943,-0.0631 l -1.0219,-0.0527 5.10472,-8.49159 5.10473,-8.4916 0.81222,-0.0175 0.81223,-0.0175 5.19069,19.52981 c 2.85488,10.74139 5.19069,19.56365 5.19069,19.60501 0,0.11257 -13.56597,0.10887 -13.60584,-0.004 z"
       style="fill:#ffffff;stroke-width:0.06313454" />
    <path
       transform="scale(0.26458333)"
       id="path167"
       d="m 215.53179,848.79779 c 5.1e-4,-0.026 2.62522,-7.64717 5.83269,-16.93584 l 5.83176,-16.88849 -4.50686,-0.0162 -4.50686,-0.0162 v -2.65123 -2.65123 h 18.59312 18.59312 v 2.65165 2.65165 l -6.20297,10e-4 -6.20296,10e-4 -5.45778,16.95039 -5.45777,16.95038 h -8.2582 c -4.54202,0 -8.25779,-0.0213 -8.25729,-0.0474 z"
       style="fill:#ffffff;stroke-width:0.06313454" />
    <path
       transform="scale(0.26458333)"
       id="path169"
       d="m 164.08683,847.44065 c 0.24016,-0.77275 2.98588,-9.58723 6.10161,-19.58774 l 5.66497,-18.18275 1.7349,-0.0136 1.73491,-0.0136 6.02537,9.46804 c 3.31396,5.20742 6.04137,9.46745 6.06092,9.46674 0.0195,-7.2e-4 1.48353,-3.9995 3.25331,-8.88619 1.76977,-4.88669 3.31433,-9.14768 3.43236,-9.46888 l 0.21459,-0.58399 h 6.43241 6.43241 l -0.003,2.32019 -0.003,2.32019 -5.29082,17.2673 -5.29082,17.26729 -2.58803,0.0165 -2.58803,0.0165 -5.28946,-8.90372 c -2.9092,-4.89705 -5.3098,-8.91629 -5.33466,-8.93166 -0.0249,-0.0154 -1.33625,3.9839 -2.91421,8.88725 l -2.86901,8.91517 -7.6767,0.016 -7.67669,0.016 z"
       style="fill:#ffffff;stroke-width:0.06313454" />
    <path
       transform="scale(0.26458333)"
       id="path171"
       d="m 146.88992,848.76622 c -0.0151,-0.0434 -1.49502,-5.00814 -3.28866,-11.03276 -1.79365,-6.02461 -3.26484,-10.95854 -3.26932,-10.96429 -0.004,-0.006 -0.46773,-0.0342 -1.02945,-0.0631 l -1.02133,-0.0527 5.11432,-8.50738 5.11433,-8.50737 h 0.80352 0.80352 l 2.94859,11.09589 c 1.62172,6.10274 3.96609,14.92422 5.2097,19.60327 l 2.2611,8.50738 h -6.80942 c -5.39079,0 -6.81514,-0.0164 -6.8369,-0.0789 z"
       style="fill:#ffffff;stroke-width:0.06313454" />
    <path
       transform="scale(0.26458333)"
       id="path173"
       d="m 126.33951,848.8055 c 0,-0.0225 2.06313,-3.82985 4.58473,-8.46069 l 4.58472,-8.41972 h 1.19209 1.19208 v 3.33394 3.33395 l -3.01973,5.1103 -3.01972,5.11029 -2.75709,0.0164 c -1.51639,0.009 -2.75708,-0.002 -2.75708,-0.0245 z"
       style="fill:#ffffff;stroke-width:0.06313454" />
    <path
       transform="scale(0.26458333)"
       id="path175"
       d="m 107.71482,848.42805 c -2.68516,-0.1426 -4.74988,-0.61277 -6.37659,-1.45206 -1.30806,-0.67488 -2.404029,-1.81278 -3.125179,-3.24475 -0.207005,-0.41104 -0.536622,-1.20691 -0.536622,-1.29569 0,-0.0166 0.766235,-0.0301 1.702743,-0.0301 h 1.702738 l 0.14257,0.19282 c 0.35139,0.4753 1.44884,0.96229 2.62011,1.16267 0.31942,0.0547 1.04309,0.12856 1.60816,0.16425 1.69976,0.10736 2.85646,-0.0781 3.97791,-0.63767 0.6877,-0.34316 1.00885,-0.57118 1.5919,-1.13031 0.87812,-0.84209 1.56078,-1.87948 2.01782,-3.06632 0.18223,-0.47323 6.41746,-24.72513 6.41746,-24.9607 0,-0.0529 -1.89519,-0.0758 -7.24811,-0.0877 l -7.24812,-0.0161 0.5563,-1.76777 c 0.30597,-0.97227 0.61413,-1.95954 0.6848,-2.19393 l 0.1285,-0.42615 h 12.24968 c 11.63721,0 12.24798,0.006 12.2157,0.11048 -0.0187,0.0608 -0.33155,1.36055 -0.69525,2.88841 -3.69279,15.51298 -6.66044,26.4379 -8.11192,29.86263 -0.72042,1.69984 -2.075,2.98313 -4.33091,4.10298 -1.16052,0.57608 -2.28687,0.98854 -3.63024,1.32936 -1.52303,0.3864 -2.11504,0.45689 -4.10374,0.48865 -0.98963,0.0158 -1.984,0.0189 -2.20971,0.007 z"
       style="fill:#ffffff;stroke-width:0.06313454" />
    <path
       transform="scale(0.26458333)"
       id="path185"
       d="m 623.39202,722.36068 c 0,-0.63249 0.005,-1.14998 0.0107,-1.14998 0.0177,0 2.9645,-0.43939 6.3732,-0.95029 18.9384,-2.83849 34.06535,-5.2349 44.81027,-7.09884 1.84699,-0.3204 1.90697,-0.33211 2.46421,-0.4812 0.77798,-0.20814 1.22945,-0.37213 1.74191,-0.63271 1.10002,-0.55935 1.84681,-1.31862 2.18832,-2.22489 0.30964,-0.8217 0.30399,-1.13954 -0.0999,-5.621 -0.24869,-2.75917 -0.33452,-3.79023 -0.40111,-4.81882 -0.043,-0.66452 -0.0678,-1.50816 -0.0475,-1.61646 0.0189,-0.10098 0.12383,-0.2259 0.23902,-0.28466 0.13088,-0.0668 0.36777,-0.0997 0.48484,-0.0674 0.12189,0.0336 0.13825,0.0704 0.22609,0.50842 0.26144,1.30372 0.49502,4.14777 0.6257,7.61826 0.0734,1.95078 0.11237,4.89752 0.0693,5.24553 -0.16733,1.35153 -0.90074,2.48171 -1.94553,2.99806 -0.41518,0.20518 -0.56659,0.24354 -1.96273,0.49725 -11.12976,2.02251 -30.89389,5.35628 -52.25446,8.81417 -1.33203,0.21563 -2.44448,0.39712 -2.4721,0.40332 l -0.0502,0.0113 z"
       style="fill:#ffffff;stroke-width:0.02232143" />
    <path
       transform="scale(0.26458333)"
       id="path189"
       d="m 499.75983,740.81676 v -2.13068 l 0.0725,-0.0127 c 0.0399,-0.007 0.55469,-0.0781 1.14397,-0.15809 15.62917,-2.1213 52.14865,-7.19108 67.92411,-9.42949 0.85938,-0.12194 2.66741,-0.37813 4.01786,-0.56932 1.35044,-0.19118 4.60416,-0.65357 7.23047,-1.02753 2.62631,-0.37396 4.7834,-0.67993 4.79353,-0.67993 0.0101,0 0.0184,0.64113 0.0184,1.42473 v 1.42473 l -0.2288,0.0353 c -0.12583,0.0194 -3.1568,0.49789 -6.73549,1.06331 -19.997,3.15943 -42.59388,6.68885 -67.53348,10.5481 -8.45483,1.30832 -10.62312,1.64225 -10.66385,1.64225 -0.0372,0 -0.0393,-0.11205 -0.0393,-2.13069 z"
       style="fill:#ffffff;stroke-width:0.02232143" />
    <path
       transform="scale(0.26458333)"
       id="path191"
       d="m 580.19125,728.94745 v -1.4621 l 0.0725,-0.0131 c 0.0399,-0.007 1.73995,-0.24998 3.7779,-0.53955 21.01884,-2.98655 44.52027,-6.45079 60.8817,-8.97429 7.28918,-1.12425 16.36075,-2.56255 19.91464,-3.15746 0.29067,-0.0487 0.53425,-0.0885 0.5413,-0.0885 0.007,0 0.0128,0.41001 0.0128,0.91114 v 0.91114 l -0.74219,0.12687 c -6.87294,1.17484 -8.52569,1.45393 -15.48549,2.61496 -11.58982,1.9334 -24.02516,3.96059 -40.60424,6.61923 -5.2342,0.83937 -13.41566,2.14541 -16.91808,2.70072 -1.00056,0.15863 -2.89398,0.45907 -4.20759,0.66762 -3.85297,0.61173 -7.02318,1.11369 -7.13728,1.1301 l -0.10603,0.0152 z"
       style="fill:#ffffff;stroke-width:0.02232143" />
    <path
       transform="scale(0.26458333)"
       id="path193"
       d="m 452.66849,747.62477 c 0,-2.02588 0.006,-2.55824 0.0279,-2.56485 0.0154,-0.005 2.28795,-0.31142 5.05022,-0.68186 11.13698,-1.49352 30.71326,-4.14803 42.55581,-5.77048 1.02511,-0.14044 3.33538,-0.4569 5.13393,-0.70324 10.15226,-1.39049 23.49273,-3.22953 30.28304,-4.17465 1.14396,-0.15922 2.09569,-0.28949 2.11496,-0.28949 0.0315,0 0.035,0.1802 0.035,1.80803 0,0.99442 -0.008,1.80805 -0.0167,1.80807 -0.009,2e-5 -0.46875,0.0706 -1.0212,0.15693 -0.55246,0.0863 -1.35603,0.21143 -1.78572,0.27809 -0.42969,0.0666 -1.55469,0.24169 -2.5,0.38897 -0.94531,0.14728 -2.01004,0.313 -2.36607,0.36828 -0.35603,0.0553 -1.55134,0.2411 -2.65625,0.41296 -1.10491,0.17186 -2.36551,0.36768 -2.80134,0.43516 -0.43582,0.0675 -2.24888,0.34874 -4.02902,0.62505 -1.78013,0.2763 -3.72879,0.57853 -4.33035,0.67163 -0.60157,0.0931 -3.35882,0.51983 -6.12724,0.9483 -2.76841,0.42846 -6.08314,0.94087 -7.36607,1.13867 -1.28292,0.1978 -3.75893,0.57971 -5.50223,0.84869 -7.99122,1.23297 -24.10656,3.7102 -32.37723,4.977 -11.09825,1.69989 -12.24687,1.87524 -12.28358,1.87524 -0.0354,0 -0.0378,-0.16784 -0.0378,-2.5565 z"
       style="fill:#ffffff;stroke-width:0.02232143" />
    <path
       transform="scale(0.26458333)"
       id="path199"
       d="m 408.69936,773.72983 c -1.8833,-0.0805 -3.57545,-0.53742 -5.02232,-1.35608 -0.30283,-0.17135 -0.92392,-0.59309 -1.20536,-0.81849 -0.49637,-0.39754 -1.10947,-1.00465 -1.38753,-1.37399 -0.90689,-1.20458 -1.58797,-2.89526 -2.0695,-5.13725 -0.42261,-1.9676 -0.6827,-4.49162 -0.68338,-6.63172 -2.2e-4,-0.38998 -0.009,-0.66407 -0.0208,-0.66407 -0.0113,0 -0.46584,0.0501 -1.01005,0.11138 -4.24908,0.47827 -16.64497,1.85733 -22.57429,2.51142 -1.73103,0.19095 -4.05134,0.44716 -5.15625,0.56935 -3.66626,0.40542 -7.41682,0.81819 -11.04911,1.216 -0.95759,0.10488 -1.9652,0.21566 -2.23913,0.24618 -0.27393,0.0305 -0.50245,0.0555 -0.50781,0.0555 -0.005,0 -0.01,-1.00949 -0.01,-2.24331 0,-1.23381 0.005,-2.2433 0.0114,-2.2433 0.0271,0 9.93854,-1.27922 13.41489,-1.73139 0.89621,-0.11657 1.89565,-0.24651 2.22099,-0.28876 3.5853,-0.46564 8.60437,-1.12092 11.28348,-1.47316 1.06808,-0.14043 3.13225,-0.41163 4.58705,-0.60267 2.21259,-0.29055 7.88195,-1.03993 11.01471,-1.45592 l 0.80265,-0.10658 0.0307,-0.0893 c 0.35441,-1.02941 1.02921,-2.14007 1.95967,-3.22545 0.31797,-0.3709 0.92079,-0.96968 1.18995,-1.18198 0.83694,-0.6601 1.97866,-1.25203 3.06589,-1.58952 0.21496,-0.0667 0.23995,-0.0799 0.23996,-0.12641 0,-0.0286 -0.32143,-3.265 -0.71428,-7.19207 -0.39286,-3.92707 -0.71429,-7.16074 -0.71429,-7.18593 v -0.0458 l 1.58904,0.006 1.58905,0.006 1.07667,6.76339 c 0.59217,3.71987 1.08307,6.80608 1.09089,6.85826 0.008,0.0544 0.0263,0.0949 0.0426,0.0949 0.053,0 0.68734,0.1806 1.07111,0.30496 1.08041,0.35011 2.26056,0.85849 2.96654,1.27791 0.91535,0.54381 2.14239,1.52271 3.1986,2.55176 0.21956,0.21392 0.28173,0.26269 0.33483,0.26268 0.0359,-10e-6 0.28618,-0.0297 0.55627,-0.066 0.27009,-0.0363 1.36997,-0.18231 2.44419,-0.32448 1.07422,-0.14217 5.67969,-0.75509 10.23438,-1.36203 4.55469,-0.60695 8.77344,-1.16903 9.375,-1.24907 0.60156,-0.08 1.12639,-0.15105 1.16629,-0.15779 l 0.0725,-0.0123 v 2.67527 2.67527 l -0.5413,0.0819 c -0.29771,0.045 -3.11588,0.47389 -6.26258,0.95305 -3.14672,0.47917 -7.67685,1.16779 -10.06697,1.53028 -2.39012,0.36249 -4.37703,0.66467 -4.41535,0.67151 l -0.0697,0.0124 0.0647,0.20452 c 0.21277,0.67287 0.49401,1.77867 0.66666,2.62125 0.59626,2.9099 0.69098,5.40461 0.27565,7.25962 -0.19157,0.85559 -0.56231,1.80458 -1.03232,2.64243 -1.68703,3.00733 -4.62467,5.10458 -7.85079,5.60486 -0.9179,0.14234 -2.09705,0.20738 -3.03362,0.16734 z"
       style="fill:#ffffff;stroke-width:0.02232143" />
    <path
       transform="scale(0.26458333)"
       id="path201"
       d="m 412.43091,759.91992 v -13.51599 l 0.0837,0.0346 c 0.24011,0.0993 1.03701,0.52197 1.30022,0.68962 0.86585,0.55149 1.90223,1.3901 2.91893,2.36193 0.17516,0.16743 0.33085,0.30548 0.34598,0.30678 0.0151,10e-4 0.0576,4.9e-4 0.0945,-0.002 0.14179,-0.009 16.26963,-2.15461 27.6116,-3.67372 4.72505,-0.63286 5.6939,-0.76291 6.97545,-0.93636 0.58315,-0.0789 3.49107,-0.47057 6.46205,-0.87032 13.3839,-1.80084 39.13682,-5.29396 39.3471,-5.33704 l 0.0614,-0.0126 v 2.16238 2.16238 l -0.82032,0.12629 c -8.67063,1.33493 -16.23178,2.4983 -19.24665,2.96133 -11.73199,1.80181 -13.13495,2.01696 -18.72768,2.87198 -0.81495,0.12459 -1.61538,0.24717 -4.7991,0.73499 -0.27623,0.0423 -3.00837,0.45926 -6.07143,0.92652 -3.06306,0.46727 -6.25223,0.95426 -7.08706,1.0822 -2.95156,0.45234 -13.12985,2.00071 -18.93973,2.88121 -1.27065,0.19257 -2.31368,0.35306 -2.31785,0.35664 -0.004,0.004 0.038,0.15545 0.0938,0.33748 0.42818,1.39742 0.81415,3.22637 0.99547,4.71712 0.25329,2.08246 0.2036,3.85643 -0.14726,5.25669 -0.24436,0.97523 -0.7665,2.13988 -1.3846,3.0884 -0.43751,0.67139 -0.88704,1.21979 -1.51301,1.84576 -0.59748,0.59747 -1.05376,0.97752 -1.67523,1.39532 -1.00609,0.67639 -2.20574,1.22053 -3.29242,1.49338 -0.10435,0.0262 -0.2073,0.0528 -0.22878,0.0592 -0.0372,0.011 -0.0391,-0.64253 -0.0391,-13.50442 z"
       style="fill:#ffffff;stroke-width:0.02232143" />
    <path
       transform="scale(0.26458333)"
       id="path205"
       d="m 135.72774,784.11305 c -0.77292,-0.0687 -1.39866,-0.25371 -1.96492,-0.58095 -0.75654,-0.43719 -1.33093,-1.07976 -1.68021,-1.87962 -0.0951,-0.21774 -0.14562,-0.37543 -0.30101,-0.93913 -0.7945,-2.88218 -1.64504,-6.95775 -2.08174,-9.97526 -0.14165,-0.97877 -0.15047,-1.07551 -0.15031,-1.64939 2e-4,-0.73979 0.0239,-0.82864 0.22153,-0.82864 0.0968,0 0.15197,0.0231 0.21367,0.0894 0.40627,0.43648 0.88337,2.39499 1.71808,7.05275 0.35274,1.96827 0.55373,2.86133 0.82413,3.6618 0.39691,1.17498 0.93243,1.96216 1.66517,2.44766 0.49023,0.32482 1.08094,0.52129 1.80519,0.6004 0.33839,0.037 0.91672,0.0342 1.62445,-0.008 0.31686,-0.0188 1.00226,-0.059 1.52312,-0.0895 8.85672,-0.51811 20.10404,-1.42605 34.65692,-2.79766 l 0.29594,-0.0279 v 0.96492 0.96492 l -0.12232,0.0102 c -0.17022,0.0142 -1.28405,0.11282 -4.03667,0.3573 -0.42861,0.0381 -2.76379,0.24203 -3.97747,0.34739 -0.81061,0.0704 -2.40822,0.20722 -4.41942,0.37856 -0.66208,0.0564 -4.97401,0.41439 -5.89519,0.48943 -2.71934,0.22154 -5.9777,0.47827 -7.7103,0.6075 -0.40801,0.0304 -0.83062,0.0625 -0.93913,0.0713 -1.47472,0.11948 -6.59818,0.47726 -9.61223,0.67125 -0.80422,0.0518 -1.48049,0.0766 -1.65728,0.0609 z"
       style="fill:#ffffff;stroke-width:0.01578363" />
    <path
       transform="scale(0.26458333)"
       id="path217"
       d="m 107.97771,848.45792 c -2.46852,-0.072 -4.49686,-0.47627 -6.2369,-1.24304 -1.749038,-0.77073 -3.116669,-2.24806 -3.893798,-4.2061 -0.06616,-0.16669 -0.191601,-0.52418 -0.209253,-0.59634 l -0.0074,-0.0304 h 1.734492 1.734489 l 0.0405,0.0635 c 0.17565,0.27543 0.50853,0.54597 0.93377,0.75888 0.76566,0.38335 1.82786,0.61413 3.23037,0.70186 0.6104,0.0382 1.41763,0.0409 1.80644,0.006 1.07175,-0.096 2.01817,-0.41 2.88721,-0.95793 1.22142,-0.7701 2.24842,-2.04088 2.91961,-3.61265 0.0824,-0.19297 0.17287,-0.42685 0.20743,-0.53626 0.0785,-0.24846 0.73701,-2.75697 1.20597,-4.5939 0.11325,-0.4436 0.21073,-0.82519 0.21663,-0.84797 l 0.0107,-0.0414 h 5.17149 5.17149 l -0.008,0.0304 c -0.0468,0.18836 -0.57843,2.07284 -0.80814,2.86433 -1.20364,4.14729 -2.05941,6.5646 -2.5991,7.34176 -1.04269,1.50148 -2.7466,2.73201 -5.03416,3.63557 -1.39415,0.55068 -3.05278,0.98167 -4.63493,1.20439 -0.17792,0.025 -0.26309,0.03 -0.65739,0.0384 -1.57232,0.0333 -2.53805,0.0397 -3.18198,0.0209 z"
       style="fill:#ffffff;stroke-width:0.01104854" />
    <path
       transform="scale(0.26458333)"
       id="path219"
       d="m 107.56468,814.04979 c 1.45689,-0.002 3.84089,-0.002 5.29777,0 1.45689,0.002 0.26489,0.003 -2.64888,0.003 -2.91378,0 -4.10578,-10e-4 -2.64889,-0.003 z"
       style="fill:#ffffff;stroke-width:0.01104854" />
  </g>
</svg>
